<?xml version="1.0" encoding="UTF-8"?>
<svg id="_Слой_2" data-name="Слой 2" xmlns="http://www.w3.org/2000/svg" viewBox="0 0 400 400">
  <defs>
    <style>
      .cls-1 {
        fill: #0c0c0c;
      }

      .cls-2 {
        fill: #f9f9f9;
      }
    </style>
  </defs>
  <g id="_Слой_4" data-name="Слой 4">
    <g>
      <rect class="cls-1" width="400" height="400"/>
      <g>
        <path class="cls-2" d="M73.84,140.55v118.9h-20.5v-118.9h20.5ZM147.58,140.55l-50.47,57.24-27.44,29.07-3.59-20.33,19.6-24.17,36.91-41.81h24.99ZM123.24,259.45l-39.12-56.35,14.13-13.96,49.32,70.31h-24.33Z"/>
        <path class="cls-2" d="M202.73,215.11h-30.95v-16.25h30.95c5.39,0,9.74-.87,13.07-2.61,3.32-1.74,5.76-4.15,7.31-7.23,1.55-3.07,2.33-6.6,2.33-10.57,0-3.76-.78-7.28-2.33-10.58-1.55-3.29-3.99-5.95-7.31-7.96-3.32-2.01-7.68-3.02-13.07-3.02h-24.66v102.56h-20.5v-118.9h45.16c9.2,0,17.03,1.62,23.48,4.86,6.45,3.24,11.36,7.7,14.74,13.39,3.37,5.69,5.06,12.18,5.06,19.48,0,7.68-1.69,14.26-5.06,19.76-3.38,5.5-8.29,9.72-14.74,12.66-6.45,2.94-14.28,4.41-23.48,4.41Z"/>
        <path class="cls-2" d="M346.66,140.55v16.33h-94.64v-16.33h94.64ZM309.34,140.55v118.9h-20.33v-118.9h20.33Z"/>
      </g>
    </g>
  </g>
</svg>