<svg viewBox="0 0 20.7241 21.875" xmlns="http://www.w3.org/2000/svg" xmlns:xlink="http://www.w3.org/1999/xlink" width="20.724091" height="21.875000" fill="none" customFrame="#000000">
	<path id="Union" d="M3 0C1.34315 0 0 1.34315 0 3L0 18.875C0 20.5319 1.34315 21.875 3 21.875L13.0148 21.875C13.5671 21.875 14.0148 21.4273 14.0148 20.875C14.0148 20.3227 13.5671 19.875 13.0148 19.875L3 19.875C2.44772 19.875 2 19.4273 2 18.875L2 3C2 2.44772 2.44772 2 3 2L13.0148 2C13.5671 2 14.0148 1.55228 14.0148 1C14.0148 0.447715 13.5671 0 13.0148 0L3 0ZM6.98651 11.4148C6.98651 10.8625 7.43423 10.4148 7.98651 10.4148L17.3101 10.4148L14.8905 7.99519C14.5 7.60467 14.5 6.9715 14.8905 6.58098C15.281 6.19045 15.9142 6.19045 16.3047 6.58098L20.4312 10.7075C20.581 10.8573 20.6734 11.0428 20.7082 11.2367C20.7188 11.2955 20.7241 11.3551 20.7241 11.4147C20.7241 11.6706 20.6265 11.9265 20.4312 12.1218L16.3047 16.2483C15.9142 16.6388 15.281 16.6388 14.8905 16.2483C14.5 15.8578 14.5 15.2246 14.8905 14.8341L17.3098 12.4148L7.98651 12.4148C7.43423 12.4148 6.98651 11.9671 6.98651 11.4148Z" fill="rgb(255,98,98)" fill-rule="evenodd" />
</svg>
