<svg viewBox="0 0 14.4133 15" xmlns="http://www.w3.org/2000/svg" xmlns:xlink="http://www.w3.org/1999/xlink" width="14.413330" height="15.000000" fill="none" customFrame="#000000">
	<path id="矢量 32" d="M14.4133 14.1993C14.4133 14.4116 14.3289 14.6153 14.1788 14.7655C14.0286 14.9156 13.8249 15 13.6126 15L0.800739 15C0.588367 15 0.384699 14.9156 0.234529 14.7655C0.0843661 14.6153 1.90911e-07 14.4116 1.90911e-07 14.1993L1.90911e-07 5.78349C-8.78191e-05 5.66147 0.0277218 5.54104 0.0812913 5.43141C0.134853 5.32177 0.212773 5.22583 0.309085 5.15091L6.715 0.168708C6.85553 0.0593669 7.02857 0 7.20665 0C7.38474 0 7.55778 0.0593669 7.69831 0.168708L14.1042 5.15091C14.2006 5.22583 14.2785 5.32177 14.332 5.43141C14.3856 5.54104 14.4134 5.66147 14.4133 5.78349L14.4133 14.1993L14.4133 14.1993ZM12.8118 13.3985L12.8118 6.17425L7.20665 1.81503L1.60148 6.17425L1.60148 13.3985L12.8118 13.3985Z" fill="rgb(228,228,228)" fill-rule="evenodd" />
</svg>
