<svg viewBox="0 0 19.9453 24" xmlns="http://www.w3.org/2000/svg" xmlns:xlink="http://www.w3.org/1999/xlink" width="19.945312" height="24.000000" fill="none" customFrame="#000000">
	<path id="Fill 1" d="M15.9139 15.9373C14.8986 15.9373 13.9833 16.3243 13.2742 16.943L7.84478 13.3454C7.97449 12.9488 8.06272 12.5342 8.06272 12.0941C8.06272 11.6391 7.97023 11.2085 7.83096 10.8003L13.3082 7.08465C14.012 7.68532 14.9146 8.06272 15.9139 8.06272C18.1401 8.06272 19.9452 6.2586 19.9452 4.03136C19.9452 1.80412 18.1401 0 15.9139 0C13.6866 0 11.8825 1.80412 11.8825 4.03136C11.8825 4.48638 11.974 4.91694 12.1132 5.32625L6.63708 9.04186C5.93223 8.43907 5.0307 8.06272 4.03136 8.06272C1.80518 8.06272 0 9.86791 0 12.0941C0 14.3203 1.80518 16.1254 4.03136 16.1254C5.04558 16.1254 5.96199 15.7385 6.6711 15.1187L12.1005 18.7163C11.9708 19.1128 11.8825 19.5285 11.8825 19.9686C11.8825 22.1948 13.6866 24 15.9139 24C18.1401 24 19.9452 22.1948 19.9452 19.9686C19.9452 17.7414 18.1401 15.9373 15.9139 15.9373Z" fill="rgb(255,255,255)" fill-rule="evenodd" />
</svg>
