<svg viewBox="0 0 14.243 13.6559" xmlns="http://www.w3.org/2000/svg" xmlns:xlink="http://www.w3.org/1999/xlink" width="14.242966" height="13.655884" fill="none" customFrame="#000000">
	<path id="Vector" d="M9.36566 0.235703C9.28012 0.201663 9.19145 0.175464 9.09966 0.157107L8.4642 0.0300144C8.36687 0.010548 8.26949 0.000550596 8.17205 2.21199e-05C8.08318 -0.000459927 7.99426 0.00693614 7.9053 0.0222103C7.81729 0.0373217 7.73187 0.0596852 7.64905 0.0893009C7.56181 0.120497 7.47744 0.159741 7.39595 0.207031C7.31446 0.254323 7.23852 0.308107 7.16815 0.368381C7.10135 0.425598 7.03955 0.488663 6.98277 0.557578C6.92537 0.62724 6.87483 0.700773 6.83116 0.778178C6.78327 0.863036 6.74364 0.952546 6.71225 1.04671L6.18947 2.61505L4.54955 5.23892L3.82589 5.23892L1.53035 5.23892C1.42118 5.23892 1.31439 5.25008 1.20998 5.27239C1.11621 5.29243 1.02436 5.32146 0.934436 5.3595C0.845678 5.39704 0.761877 5.44203 0.683032 5.49448C0.599155 5.55027 0.520888 5.61449 0.44823 5.68715C0.375572 5.75981 0.311347 5.83808 0.255555 5.92195C0.203111 6.0008 0.158118 6.0846 0.120577 6.17336C0.082541 6.26328 0.0535038 6.35513 0.0334655 6.44891C0.0111552 6.55331 0 6.6601 0 6.76927L0 12.1255C3.04054e-08 12.2347 0.0111546 12.3415 0.0334638 12.4459C0.0535021 12.5397 0.0825399 12.6315 0.120577 12.7214C0.158121 12.8102 0.203117 12.894 0.255565 12.9729C0.311355 13.0567 0.375577 13.135 0.44823 13.2076C0.520896 13.2803 0.599172 13.3445 0.683058 13.4003C0.761896 13.4528 0.845688 13.4978 0.934436 13.5353C1.02434 13.5733 1.11617 13.6024 1.20992 13.6224C1.31435 13.6447 1.42116 13.6559 1.53035 13.6559L10.9261 13.6559C11.0908 13.6559 11.2477 13.6318 11.3969 13.5837C11.546 13.5355 11.6874 13.4633 11.821 13.367C11.9546 13.2707 12.0678 13.1594 12.1606 13.0332C12.2534 12.9069 12.3259 12.7657 12.378 12.6095L14.1634 7.25321C14.2065 7.12373 14.2322 6.99317 14.2402 6.86154C14.2471 6.74837 14.2411 6.63442 14.222 6.51967C14.2034 6.40733 14.1733 6.29965 14.1316 6.19662C14.0859 6.08364 14.0264 5.97625 13.953 5.87446C13.8797 5.77266 13.7966 5.68223 13.7039 5.60316C13.6193 5.53107 13.5267 5.46844 13.426 5.41524C13.3232 5.3609 13.217 5.31912 13.1074 5.2899C12.98 5.25591 12.848 5.23892 12.7116 5.23892L9.81395 5.23892L10.3299 3.43315L10.3299 1.65774C10.3299 1.56415 10.3216 1.47207 10.305 1.38152C10.2897 1.29823 10.2674 1.21622 10.2381 1.1355C10.2091 1.05552 10.1739 0.978982 10.1327 0.905884C10.0895 0.82932 10.0396 0.75653 9.98302 0.687515C9.92644 0.618497 9.86485 0.5553 9.79824 0.497924C9.73465 0.44315 9.66649 0.393681 9.59377 0.349517C9.52037 0.304947 9.44433 0.267009 9.36566 0.235703ZM8.16407 1.53065L8.79954 1.65774L8.79954 3.21881L8.34248 4.8185C8.30604 4.94605 8.28624 5.07401 8.28308 5.20237C8.28035 5.31341 8.29008 5.42475 8.31225 5.53639C8.33399 5.64583 8.36666 5.75049 8.41026 5.85037C8.45787 5.95944 8.51852 6.06281 8.5922 6.16049C8.66588 6.25818 8.74862 6.34489 8.84041 6.42063C8.92447 6.49 9.01613 6.55016 9.11538 6.60112C9.21664 6.65311 9.32102 6.69305 9.42853 6.72093C9.55283 6.75316 9.6813 6.76927 9.81395 6.76927L12.7116 6.76927L10.9261 12.1255L4.59106 12.1255L4.59106 6.76874C4.70831 6.76573 4.82225 6.74992 4.93288 6.72132C5.05653 6.68934 5.17604 6.64138 5.29142 6.57743C5.4068 6.51349 5.51081 6.43756 5.60345 6.34965C5.6961 6.26175 5.77738 6.16187 5.84729 6.05001L7.58371 3.27173L8.16407 1.53065ZM3.06071 6.76927L1.53035 6.76927L1.53035 12.1255L3.06071 12.1255L3.06071 6.76927Z" fill="rgb(228,228,228)" fill-rule="evenodd" transform="matrix(1,0,0,-1,0,13.6559)" />
</svg>
