<svg viewBox="0 0 14 8" xmlns="http://www.w3.org/2000/svg" xmlns:xlink="http://www.w3.org/1999/xlink" width="14.000000" height="8.000000" fill="none" customFrame="#000000">
	<path id="矢量 178" d="M0 4.8L1.55556 4.8L1.55556 3.2L0 3.2L0 4.8ZM0 8L1.55556 8L1.55556 6.4L0 6.4L0 8ZM0 1.6L1.55556 1.6L1.55556 0L0 0L0 1.6ZM3.11111 4.8L14 4.8L14 3.2L3.11111 3.2L3.11111 4.8ZM3.11111 8L14 8L14 6.4L3.11111 6.4L3.11111 8ZM3.11111 0L3.11111 1.6L14 1.6L14 0L3.11111 0Z" fill="rgb(228,228,228)" fill-rule="evenodd" />
</svg>
