<svg viewBox="0 0 11 13.3572" xmlns="http://www.w3.org/2000/svg" xmlns:xlink="http://www.w3.org/1999/xlink" width="11.000000" height="13.357178" fill="none" customFrame="#000000">
	<path id="矢量 254" d="M7.46429 0L8.25 0.785714L10.2143 0.785714L11 0.785714L11 1.57143L0 1.57143L0 0.785714L0.785714 0.785714L2.75 0.785714L3.53571 0L7.46429 0ZM10.2143 2.35714L0.785714 2.35714L0.785714 11.7857C0.785714 12.65 1.49286 13.3571 2.35714 13.3571L8.64286 13.3571C9.50714 13.3571 10.2143 12.65 10.2143 11.7857L10.2143 2.35714ZM9.42857 3.14286L1.57143 3.14286L1.57143 11.7857C1.57143 11.8881 1.5889 11.9836 1.62385 12.0722C1.66234 12.1698 1.72202 12.2591 1.80291 12.34C1.88379 12.4208 1.97303 12.4805 2.07063 12.519C2.15925 12.554 2.25475 12.5714 2.35714 12.5714L8.64286 12.5714C8.74525 12.5714 8.84076 12.554 8.92937 12.519C9.02697 12.4805 9.11621 12.4208 9.19709 12.34C9.27798 12.2591 9.33766 12.1698 9.37615 12.0722C9.4111 11.9836 9.42857 11.8881 9.42857 11.7857L9.42857 3.14286Z" fill="rgb(255,123,123)" fill-rule="evenodd" />
</svg>
