<svg viewBox="0 0 14 17" xmlns="http://www.w3.org/2000/svg" xmlns:xlink="http://www.w3.org/1999/xlink" width="14.000000" height="17.000000" fill="none" customFrame="#000000">
	<rect id="bucket" width="14.000000" height="17.000000" x="0.000000" y="0.000000" fill="rgb(255,255,255)" fill-opacity="0" />
	<path id="矢量 254" d="M9.5 0L10.5 1L14 1L14 2L0 2L0 1L3.5 1L4.5 0L9.5 0ZM13 3L1 3L1 15C1 16.1 1.9 17 3 17L11 17C12.1 17 13 16.1 13 15L13 3ZM12 4L2 4L2 15Q2 15.1955 2.06672 15.3647Q2.1402 15.551 2.29461 15.7054Q2.44902 15.8598 2.63535 15.9333Q2.80452 16 3 16L11 16Q11.1955 16 11.3647 15.9333Q11.551 15.8598 11.7054 15.7054Q11.8598 15.551 11.9333 15.3647Q12 15.1955 12 15L12 4Z" fill="rgb(255,255,255)" fill-rule="evenodd" />
</svg>
