<svg width="56.930664" height="47.398682" viewBox="0 0 56.9307 47.3987" fill="none" xmlns="http://www.w3.org/2000/svg" xmlns:xlink="http://www.w3.org/1999/xlink">
	<desc>
			Created with Pixso.
	</desc>
	<defs/>
	<path id="Прямоугольник 28" d="M52.71 1.84L55.08 4.21C56.1 5.23 56.1 6.88 55.08 7.9L17.64 45.34C16.62 46.36 14.96 46.36 13.94 45.34L11.58 42.98C10.56 41.96 10.56 40.3 11.58 39.28L49.02 1.84C50.04 0.82 51.69 0.82 52.71 1.84Z" fill="#FFFFFF" fill-opacity="1.000000" fill-rule="evenodd"/>
	<path id="Прямоугольник 30" d="M19.53 43.18L17.17 45.55C16.15 46.57 14.49 46.57 13.47 45.55L1.84 33.92C0.82 32.89 0.82 31.24 1.84 30.22L4.21 27.86C5.23 26.83 6.88 26.83 7.9 27.86L19.53 39.49C20.55 40.51 20.55 42.16 19.53 43.18Z" fill="#FFFFFF" fill-opacity="1.000000" fill-rule="evenodd"/>
</svg>
