<svg width="49.664307" height="44.007141" viewBox="0 0 49.6643 44.0071" fill="none" xmlns="http://www.w3.org/2000/svg" xmlns:xlink="http://www.w3.org/1999/xlink">
	<defs/>
	<path id="Форма 18" d="M42.3 3.76L34.13 5.62C33.31 5.8 32.52 5.31 32.34 4.49C32.15 3.67 32.65 2.88 33.47 2.69L45.17 0.03C45.99 -0.15 46.78 0.35 46.96 1.16L49.62 12.87C49.81 13.69 49.31 14.48 48.49 14.66C47.67 14.85 46.88 14.35 46.69 13.53L44.84 5.36L23.31 39.54L15.78 23.54L2.75 43.32C2.29 44.02 1.38 44.21 0.68 43.75C-0.03 43.29 -0.21 42.37 0.25 41.67L16.22 17.42L23.69 33.3L42.3 3.76Z" fill="#FFFFFF" fill-opacity="1.000000" fill-rule="evenodd"/>
</svg>
