<svg viewBox="0 0 18 17.54" xmlns="http://www.w3.org/2000/svg" xmlns:xlink="http://www.w3.org/1999/xlink" width="18.000000" height="17.540039" fill="none" customFrame="#000000">
	<path id="矢量 129" d="M0 5.77L0 11.77L4 11.77L9 16.77L9 0.77L4 5.77L0 5.77ZM13.5 8.77002C13.5 7.00002 12.48 5.48 11 4.74L11 12.79C12.48 12.06 13.5 10.54 13.5 8.77002ZM11 0L11 2.06C13.89 2.92 16 5.6 16 8.77002C16 11.94 13.89 14.62 11 15.48L11 17.54C15.01 16.63 18 13.05 18 8.77002C18 4.49 15.01 0.91 11 0Z" fill="rgb(255,255,255)" fill-rule="evenodd" />
</svg>
